# xmcd
#
# Track frame offsets: 
#        300
#        17822
#        37054
#        57146
#        76830
#        95279
#        116655
#        131271
#        153841
#        174608
#
# Disc length: 2568 seconds
#
# Revision: 4
# Processed by: cddbd v1.5.2PL0 Copyright (c) Steve Scherf et al.
# Submitted via: ExactAudioCopy v0.99pb5
#
DISCID=740a040a
DTITLE=Bonnie Raitt - Nine Lives
DYEAR=1986
DGENRE=Blues Rock
TTITLE0=No Way to Treat a Lady
TTITLE1=Runnin' Back to Me
TTITLE2=Who But a Fool (Thief Into Paradise)
TTITLE3=Crime of Passion
TTITLE4=All Day, All Night
TTITLE5=Stand Up to the Night
TTITLE6=Excited
TTITLE7=Freezin' (For a Little Human Love)
TTITLE8=True Love is Hard to Find
TTITLE9=Angel
EXTD=YEAR: 1986
EXTT0=
EXTT1=
EXTT2=
EXTT3=
EXTT4=
EXTT5=
EXTT6=
EXTT7=
EXTT8=
EXTT9=
PLAYORDER=
